<?xml version="1.0" encoding="UTF-8"?>
<svg width="220px" height="50px" viewBox="0 0 220 50" version="1.1" xmlns="http://www.w3.org/2000/svg" xmlns:xlink="http://www.w3.org/1999/xlink">
    <!-- Generator: Sketch 52.4 (67378) - http://www.bohemiancoding.com/sketch -->
    <title>BRANDS/News/Black/CG-News-Black</title>
    <desc>Created with Sketch.</desc>
    <defs>
        <linearGradient x1="100%" y1="100%" x2="0%" y2="0%" id="linearGradient-1">
            <stop stop-color="#00D2FF" offset="0%"></stop>
            <stop stop-color="#0074FC" offset="100%"></stop>
        </linearGradient>
    </defs>
    <g id="00_Guidelines" stroke="none" stroke-width="1" fill="none" fill-rule="evenodd">
        <g id="Brands-Colors" transform="translate(-536.000000, -628.000000)">
            <g id="BRANDS/News/Black/CG-News-Black" transform="translate(536.000000, 628.000000)">
                <g id="Group-2">
                    <path d="M26.9822485,0 C34.5798817,0 42.887574,3.48189415 48,8.91364903 L38.4852071,19.9860724 C35.5029586,16.0167131 31.0295858,13.4401114 27.1952663,13.4401114 C21.2307692,13.4401114 16.8994083,18.1058496 16.8994083,24.5821727 C16.8994083,31.1281337 21.2307692,35.8635097 27.1952663,35.8635097 C30.7455621,35.8635097 35.2189349,33.7047354 38.4852071,30.2924791 L48,40.2506964 C42.4615385,46.1699164 34.0118343,50 26.3431953,50 C11.0769231,50 0,39.3454039 0,24.7910864 C0,10.4456825 11.3609467,0 26.9822485,0 Z M84.9570201,23.6072423 L99.2120344,23.6072423 L99.2120344,43.7325905 C93.6246418,47.3537604 84.3839542,50 77.2206304,50 C61.4613181,50 50,39.4150418 50,24.9303621 C50,10.5153203 61.8911175,0 78.2951289,0 C86.1031519,0 94.6275072,2.92479109 100,7.52089136 L90.6160458,18.5933148 C87.2492837,15.45961 82.3782235,13.4401114 78.2234957,13.4401114 C71.7765043,13.4401114 67.0487106,18.3147632 67.0487106,24.9303621 C67.0487106,31.6852368 71.8481375,36.5598886 78.3667622,36.5598886 C80.0859599,36.5598886 82.52149,35.9331476 84.9570201,34.9582173 L84.9570201,23.6072423 Z" id="CG" fill="#000000"></path>
                    <path d="M128.993576,27.0850277 C130.249828,27.0850277 131.506061,27.1913113 132.762313,27.4038817 C134.018564,27.6164521 135.153457,28.0628432 136.167024,28.7430684 C137.18059,29.4232936 138.008562,30.4011027 138.650964,31.676525 C139.293365,32.9519472 139.614561,34.6383136 139.614561,36.7356747 L139.614561,49.4473198 C138.87223,49.5890334 138.201288,49.6811458 137.601713,49.7236599 C137.002138,49.766174 136.473949,49.7874307 136.017131,49.7874307 C135.531761,49.7874307 134.989296,49.766174 134.389722,49.7236599 C133.790147,49.6811458 133.119204,49.5890334 132.376874,49.4473198 L132.376874,37.5009242 C132.376874,35.9987602 132.091366,34.9217531 131.520343,34.2698706 C130.949319,33.6179881 130.078521,33.2920518 128.907923,33.2920518 C128.59386,33.2920518 128.258389,33.320394 127.901499,33.3770795 C127.544609,33.4337649 127.323341,33.4904495 127.237687,33.5471349 L127.237687,49.4473198 C126.495357,49.5890334 125.824414,49.6811458 125.224839,49.7236599 C124.625265,49.766174 124.097076,49.7874307 123.640257,49.7874307 C123.154887,49.7874307 122.612423,49.766174 122.012848,49.7236599 C121.413273,49.6811458 120.742331,49.5890334 120,49.4473198 L120,28.5730129 C120.999291,28.2329003 122.212698,27.8998784 123.640257,27.5739372 C125.067816,27.2479959 126.852238,27.0850277 128.993576,27.0850277 Z M151.263383,40.7744917 C151.577446,41.9365431 152.127048,42.7584696 152.912206,43.2402957 C153.697363,43.7221219 154.732328,43.9630314 156.017131,43.9630314 C156.845115,43.9630314 157.773014,43.8638334 158.800857,43.6654344 C159.828699,43.4670354 160.842251,43.1694413 161.841542,42.7726433 C162.241258,43.5095539 162.591005,44.388165 162.890792,45.4085028 C163.19058,46.4288406 163.354746,47.4916765 163.383298,48.5970425 C160.842243,49.5323522 158.244125,50 155.588865,50 C153.53318,50 151.770172,49.7165771 150.299786,49.1497227 C148.8294,48.5828684 147.630269,47.7963698 146.702355,46.7902033 C145.774442,45.7840369 145.089224,44.586575 144.646681,43.1977819 C144.204138,41.8089887 143.982869,40.2926761 143.982869,38.6487985 C143.982869,37.0332636 144.211275,35.516951 144.668094,34.0998152 C145.124913,32.6826793 145.810131,31.4497896 146.723769,30.4011091 C147.637406,29.3524285 148.779436,28.5234165 150.149893,27.9140481 C151.520349,27.3046796 153.119191,27 154.946467,27 C156.459679,27 157.808702,27.2550806 158.993576,27.7652495 C160.17845,28.2754184 161.184864,28.9768902 162.012848,29.8696858 C162.840832,30.7624814 163.476086,31.8394885 163.91863,33.1007394 C164.361173,34.3619903 164.582441,35.7295059 164.582441,37.2033272 C164.582441,37.9685805 164.546753,38.6558811 164.475375,39.2652495 C164.403997,39.874618 164.339758,40.3776936 164.282655,40.7744917 L151.263383,40.7744917 Z M154.689507,32.3992606 C153.77587,32.3992606 152.990724,32.6826835 152.334047,33.2495379 C151.67737,33.8163922 151.291935,34.6950033 151.17773,35.8853974 L158.029979,35.8853974 C157.972876,34.8934023 157.665956,34.0643903 157.109208,33.3983364 C156.55246,32.7322826 155.745901,32.3992606 154.689507,32.3992606 Z M190.364026,40.1792976 L193.019272,27.5101664 C193.247681,27.4534809 193.690218,27.3967963 194.346895,27.3401109 C195.003572,27.2834255 195.703066,27.2550832 196.445396,27.2550832 C197.387585,27.2550832 198.222694,27.2834255 198.950749,27.3401109 C199.678804,27.3967963 200.199856,27.4534809 200.513919,27.5101664 L193.576017,49.4048059 C193.090647,49.5465195 192.562458,49.638632 191.991435,49.681146 C191.420411,49.7236601 190.849396,49.7449168 190.278373,49.7449168 C189.707349,49.7449168 189.129196,49.7236601 188.543897,49.681146 C187.958598,49.638632 187.351895,49.5465195 186.723769,49.4048059 L183.59743,37.5009242 C183.054958,39.3998863 182.505356,41.3980179 181.948608,43.4953789 C181.39186,45.59274 180.856534,47.5625293 180.342612,49.4048059 C179.743038,49.5465195 179.15061,49.638632 178.56531,49.681146 C177.980011,49.7236601 177.401859,49.7449168 176.830835,49.7449168 C176.259812,49.7449168 175.688797,49.7236601 175.117773,49.681146 C174.546749,49.638632 174.018561,49.5465195 173.533191,49.4048059 L166.809422,27.5101664 C167.123485,27.4534809 167.673087,27.3967963 168.458244,27.3401109 C169.243401,27.2834255 170.107062,27.2550832 171.049251,27.2550832 C171.791581,27.2550832 172.512488,27.2834255 173.211991,27.3401109 C173.911495,27.3967963 174.375445,27.4534809 174.603854,27.5101664 L177.38758,40.5194085 L180.471092,27.5101664 C180.956462,27.3684528 181.491789,27.2763403 182.077088,27.2338262 C182.662387,27.1913122 183.24054,27.1700555 183.811563,27.1700555 C184.382587,27.1700555 184.960739,27.1913122 185.546039,27.2338262 C186.131338,27.2763403 186.723766,27.3684528 187.32334,27.5101664 L190.364026,40.1792976 Z M214.261242,35.715342 C215.117777,35.9420837 215.895785,36.218421 216.595289,36.5443623 C217.294793,36.8703035 217.894359,37.2883523 218.394004,37.7985213 C218.89365,38.3086902 219.286223,38.9322206 219.571734,39.6691312 C219.857246,40.4060419 220,41.2988241 220,42.3475046 C220,43.4245279 219.778732,44.4306792 219.336188,45.3659889 C218.893645,46.3012986 218.236978,47.1090539 217.366167,47.7892791 C216.495356,48.4695043 215.424703,49.0080079 214.154176,49.4048059 C212.883648,49.801604 211.420422,50 209.764454,50 C208.393997,50 207.123489,49.900802 205.952891,49.702403 C204.782293,49.5040039 203.540335,49.1638964 202.226981,48.6820702 C202.369737,46.7547655 202.897925,44.7991473 203.811563,42.8151571 C204.725201,43.2402979 205.681651,43.5591487 206.680942,43.771719 C207.680233,43.9842894 208.67951,44.090573 209.678801,44.090573 C210.021415,44.090573 210.378299,44.0764019 210.749465,44.0480591 C211.12063,44.0197164 211.448964,43.9559463 211.734475,43.8567468 C212.019987,43.7575473 212.255531,43.6229214 212.441113,43.4528651 C212.626696,43.2828088 212.719486,43.0560704 212.719486,42.7726433 C212.719486,42.4041879 212.533906,42.1278506 212.162741,41.9436229 C211.791576,41.7593953 211.363314,41.5964271 210.877944,41.4547135 L207.965739,40.6469501 C206.452526,40.2218093 205.196293,39.4990809 204.197002,38.4787431 C203.197711,37.4584052 202.698073,36.0696329 202.698073,34.3123845 C202.698073,33.2070185 202.926479,32.2008671 203.383298,31.2939002 C203.840116,30.3869332 204.482508,29.6146058 205.310493,28.9768946 C206.138477,28.3391835 207.11634,27.850279 208.244111,27.5101664 C209.371883,27.1700538 210.620978,27 211.991435,27 C213.076379,27 214.261236,27.1133692 215.546039,27.3401109 C216.830842,27.5668526 218.10135,27.892789 219.357602,28.3179298 C219.300499,29.2248967 219.114919,30.1956202 218.800857,31.2301294 C218.486794,32.2646386 218.129909,33.1786775 217.730193,33.9722736 C216.959311,33.6605037 216.031412,33.3770808 214.946467,33.1219963 C213.861522,32.8669118 212.862246,32.7393715 211.948608,32.7393715 C210.606703,32.7393715 209.93576,33.1078213 209.93576,33.844732 C209.93576,34.1565019 210.092789,34.3974113 210.406852,34.5674677 C210.720915,34.737524 211.0778,34.8792354 211.477516,34.9926063 L214.261242,35.715342 Z" id="news" fill="#000000"></path>
                    <rect id="Rectangle-5" fill="url(#linearGradient-1)" fill-rule="nonzero" x="120" y="7" width="100" height="6" rx="3"></rect>
                </g>
            </g>
        </g>
    </g>
</svg>