<?xml version="1.0" encoding="UTF-8"?>
<svg width="223px" height="32px" viewBox="0 0 223 32" version="1.1" xmlns="http://www.w3.org/2000/svg" xmlns:xlink="http://www.w3.org/1999/xlink">
    <!-- Generator: Sketch 52.2 (67145) - http://www.bohemiancoding.com/sketch -->
    <title>Logo / Coingeek</title>
    <desc>Created with Sketch.</desc>
    <defs>
        <path d="M0,16.5268022 C0,14.382614 0.303909098,12.4171377 0.911736412,10.6303142 C1.51956373,8.84349076 2.41341401,7.3157796 3.59331409,6.04713494 C4.77321417,4.77849027 6.22125164,3.78681811 7.93746994,3.07208872 C9.65368823,2.35735933 11.6201589,2 13.8369408,2 C14.5877863,2 15.3028666,2.01786797 15.982203,2.05360444 C16.6615394,2.08934091 17.3319271,2.16081277 17.9933862,2.26802218 C18.6548454,2.37523159 19.3341716,2.53604329 20.0313853,2.75046211 C20.728599,2.96488092 21.5062487,3.23290043 22.3643579,3.55452865 C22.435867,4.76956861 22.3286049,5.97565637 22.0425685,7.1728281 C21.7565322,8.36999982 21.309607,9.54035165 20.7017797,10.6839187 C20.0939524,10.4694999 19.5487037,10.2997542 19.0660173,10.1746765 C18.5833309,10.0495989 18.1274673,9.95132506 17.6984127,9.87985213 C17.2693581,9.80837919 16.8492485,9.76370927 16.4380712,9.74584104 C16.0268939,9.7279728 15.5889072,9.71903882 15.1240981,9.71903882 C13.4078798,9.71903882 11.9866579,10.2282759 10.8603896,11.2467652 C9.73412135,12.2652546 9.17099567,14.0252494 9.17099567,16.5268022 C9.17099567,17.8490516 9.34082723,18.9479315 9.68049543,19.823475 C10.0201636,20.6990185 10.4670888,21.3869353 11.0212843,21.8872458 C11.5754798,22.3875564 12.219052,22.7449157 12.9520202,22.9593346 C13.6849884,23.1737534 14.4626382,23.2809612 15.2849928,23.2809612 C16.3218747,23.2809612 17.2246635,23.1916213 17.9933862,23.012939 C18.762109,22.8342567 19.6648978,22.5483692 20.7017797,22.155268 C21.309607,23.1201527 21.7922862,24.2011647 22.1498316,25.3983364 C22.5073771,26.5955081 22.6861472,27.9624076 22.6861472,29.4990758 C21.041438,30.1423322 19.5397695,30.5532955 18.1810967,30.7319778 C16.8224239,30.9106602 15.4637714,31 14.1050986,31 C11.8168075,31 9.79670589,30.6605086 8.04473304,29.9815157 C6.2927602,29.3025228 4.81790722,28.3287186 3.62012987,27.0600739 C2.42235252,25.7914293 1.51956373,24.2726521 0.911736412,22.5036969 C0.303909098,20.7347416 0,18.7424633 0,16.5268022 Z M25.5286195,16.6340111 C25.5286195,14.4540865 25.8235901,12.4618082 26.4135402,10.6571165 C27.0034902,8.85242474 27.8794635,7.30684562 29.0414863,6.02033272 C30.2035091,4.73381982 31.6426081,3.74214766 33.3588264,3.04528651 C35.0750447,2.34842535 37.0593923,2 39.3119288,2 C41.6002199,2 43.6024445,2.34842535 45.3186628,3.04528651 C47.0348811,3.74214766 48.4739801,4.73381982 49.6360029,6.02033272 C50.7980257,7.30684562 51.673999,8.85242474 52.263949,10.6571165 C52.8538991,12.4618082 53.1488696,14.4540865 53.1488696,16.6340111 C53.1488696,18.7781993 52.8538991,20.7347416 52.263949,22.5036969 C51.673999,24.2726521 50.7980257,25.7914293 49.6360029,27.0600739 C48.4739801,28.3287186 47.0348811,29.3025228 45.3186628,29.9815157 C43.6024445,30.6605086 41.6002199,31 39.3119288,31 C37.0593923,31 35.0750447,30.6605086 33.3588264,29.9815157 C31.6426081,29.3025228 30.2035091,28.3287186 29.0414863,27.0600739 C27.8794635,25.7914293 27.0034902,24.2726521 26.4135402,22.5036969 C25.8235901,20.7347416 25.5286195,18.7781993 25.5286195,16.6340111 Z M43.977874,16.6340111 C43.977874,14.346877 43.5935184,12.5958163 42.8247956,11.3807763 C42.0560728,10.1657364 40.8851289,9.55822551 39.3119288,9.55822551 C37.7387287,9.55822551 36.5767233,10.1657364 35.8258778,11.3807763 C35.0750323,12.5958163 34.6996152,14.346877 34.6996152,16.6340111 C34.6996152,18.8854087 35.0750323,20.6186014 35.8258778,21.8336414 C36.5767233,23.0486814 37.7387287,23.6561922 39.3119288,23.6561922 C40.8851289,23.6561922 42.0560728,23.0486814 42.8247956,21.8336414 C43.5935184,20.6186014 43.977874,18.8854087 43.977874,16.6340111 Z M67.9511785,30.3031423 C67.0215602,30.4460882 66.1813409,30.553296 65.4304954,30.6247689 C64.6796499,30.6962419 64.0003237,30.7319778 63.3924964,30.7319778 C62.7846691,30.7319778 62.1053429,30.6962419 61.3544974,30.6247689 C60.6036518,30.553296 59.7813096,30.4460882 58.8874459,30.3031423 L58.8874459,2.64325323 C59.6740459,2.46457089 60.4516957,2.33949512 61.2204185,2.26802218 C61.9891412,2.19654924 62.731037,2.16081331 63.4461279,2.16081331 C64.1254644,2.16081331 64.8584216,2.19654924 65.6450216,2.26802218 C66.4316217,2.33949512 67.2003329,2.46457089 67.9511785,2.64325323 L67.9511785,30.3031423 Z M86.2931698,2.10720887 C87.8663699,2.10720887 89.4395464,2.24121862 91.0127465,2.50924214 C92.5859466,2.77726567 94.0071686,3.34010662 95.276455,4.19778189 C96.5457415,5.05545715 97.5826078,6.28834686 98.3870851,7.89648799 C99.1915625,9.50462911 99.5937951,11.6309172 99.5937951,14.2754159 L99.5937951,30.3031423 C98.6641768,30.4818247 97.8239576,30.5979665 97.0731121,30.6515712 C96.3222666,30.7051759 95.6608174,30.7319778 95.0887446,30.7319778 C94.4809173,30.7319778 93.8015911,30.7051759 93.0507456,30.6515712 C92.2999,30.5979665 91.4596808,30.4818247 90.5300625,30.3031423 L90.5300625,15.2402957 C90.5300625,13.3462629 90.1725224,11.9882974 89.4574315,11.1663586 C88.7423405,10.3444198 87.6518431,9.93345656 86.1859067,9.93345656 C85.7926067,9.93345656 85.372497,9.9691925 84.9255652,10.0406654 C84.4786333,10.1121384 84.2015397,10.1836102 84.0942761,10.2550832 L84.0942761,30.3031423 C83.1646578,30.4818247 82.3244386,30.5979665 81.5735931,30.6515712 C80.8227476,30.7051759 80.1612984,30.7319778 79.5892256,30.7319778 C78.9813983,30.7319778 78.3020721,30.7051759 77.5512266,30.6515712 C76.800381,30.5979665 75.9601618,30.4818247 75.0305435,30.3031423 L75.0305435,3.98336414 C76.2819527,3.55452651 77.8014982,3.13462929 79.5892256,2.72365989 C81.376953,2.31269049 83.6115787,2.10720887 86.2931698,2.10720887 Z M119.330207,31 C116.755879,31 114.565946,30.6158387 112.760342,29.8475046 C110.954737,29.0791705 109.479884,28.0338945 108.335738,26.7116451 C107.191593,25.3893957 106.360312,23.8348826 105.841871,22.0480591 C105.32343,20.2612357 105.064214,18.3493632 105.064214,16.3123845 C105.064214,14.3468787 105.377061,12.4886101 106.002766,10.7375231 C106.62847,8.9864361 107.558075,7.46765893 108.791607,6.18114603 C110.025138,4.89463312 111.553622,3.87615902 113.377104,3.12569316 C115.200586,2.3752273 117.310073,2 119.705628,2 C120.957037,2 122.333566,2.14294373 123.835257,2.42883549 C125.336948,2.71472725 126.981633,3.21503031 128.76936,3.9297597 C128.733606,4.53727969 128.662098,5.10905462 128.554834,5.64510166 C128.44757,6.18114871 128.313493,6.72612169 128.152597,7.28003697 C127.991702,7.83395225 127.795055,8.42359515 127.56265,9.04898336 C127.330246,9.67437158 127.053152,10.3801563 126.731361,11.1663586 C125.515707,10.666048 124.389455,10.2997547 123.352573,10.0674677 C122.315691,9.8351806 121.421841,9.71903882 120.670996,9.71903882 C119.491096,9.71903882 118.489983,9.89771848 117.667629,10.2550832 C116.845274,10.6124479 116.183825,11.094883 115.683261,11.702403 C115.182698,12.3099229 114.816219,13.0157076 114.583814,13.8197782 C114.35141,14.6238488 114.235209,15.4547092 114.235209,16.3123845 C114.235209,18.7067279 114.753642,20.4667227 115.790524,21.5924214 C116.827406,22.7181202 118.346952,23.2809612 120.349206,23.2809612 L121.314574,23.2809612 L121.314574,15.4011091 C122.208438,15.2224267 123.003965,15.0973509 123.701178,15.025878 C124.398392,14.9544051 125.06878,14.9186691 125.712362,14.9186691 C126.963771,14.9186691 128.447562,15.0794808 130.163781,15.4011091 L130.163781,29.0166359 C129.126899,29.409737 127.678861,29.8385682 125.819625,30.3031423 C123.960388,30.7677164 121.797271,31 119.330207,31 Z M144.000722,19.3678373 C144.394022,20.8330326 145.082286,21.8693747 146.065536,22.4768946 C147.048786,23.0844146 148.344869,23.3881701 149.953824,23.3881701 C150.990706,23.3881701 152.152711,23.2630943 153.439875,23.012939 C154.727039,22.7627837 155.996306,22.3875564 157.247715,21.8872458 C157.748279,22.816394 158.186266,23.924208 158.561688,25.2107209 C158.937111,26.4972338 159.142697,27.8373313 159.178451,29.2310536 C155.996296,30.4103571 152.742681,31 149.417508,31 C146.843181,31 144.635371,30.6426407 142.794012,29.9279113 C140.952652,29.2131819 139.450984,28.2215097 138.288961,26.9528651 C137.126938,25.6842204 136.268842,24.1743772 135.714646,22.4232902 C135.160451,20.6722032 134.883357,18.7603308 134.883357,16.6876155 C134.883357,14.6506368 135.169389,12.7387643 135.741462,10.9519409 C136.313535,9.16511738 137.171631,7.61060427 138.315777,6.2883549 C139.459922,4.96610553 140.890083,3.92082947 142.606301,3.15249538 C144.322519,2.38416128 146.324744,2 148.613035,2 C150.508026,2 152.197403,2.3216234 153.681217,2.96487985 C155.165031,3.6081363 156.42536,4.49260066 157.462241,5.61829945 C158.499123,6.74399823 159.29465,8.10196371 159.848846,9.6922366 C160.403041,11.2825095 160.680135,13.0067683 160.680135,14.8650647 C160.680135,15.8299494 160.635442,16.6965458 160.546056,17.4648799 C160.456669,18.2332139 160.376223,18.8675268 160.304714,19.3678373 L144.000722,19.3678373 Z M148.291246,8.8077634 C147.1471,8.8077634 146.163865,9.16512274 145.34151,9.87985213 C144.519156,10.5945815 144.036477,11.7023955 143.893458,13.2033272 L152.474507,13.2033272 C152.402998,11.9525507 152.018642,10.9072747 151.321429,10.0674677 C150.624215,9.22766062 149.614164,8.8077634 148.291246,8.8077634 Z M173.927128,19.3678373 C174.320428,20.8330326 175.008693,21.8693747 175.991943,22.4768946 C176.975193,23.0844146 178.271276,23.3881701 179.880231,23.3881701 C180.917113,23.3881701 182.079118,23.2630943 183.366282,23.012939 C184.653446,22.7627837 185.922713,22.3875564 187.174122,21.8872458 C187.674686,22.816394 188.112672,23.924208 188.488095,25.2107209 C188.863518,26.4972338 189.069104,27.8373313 189.104858,29.2310536 C185.922703,30.4103571 182.669088,31 179.343915,31 C176.769588,31 174.561778,30.6426407 172.720418,29.9279113 C170.879059,29.2131819 169.377391,28.2215097 168.215368,26.9528651 C167.053345,25.6842204 166.195249,24.1743772 165.641053,22.4232902 C165.086858,20.6722032 164.809764,18.7603308 164.809764,16.6876155 C164.809764,14.6506368 165.095796,12.7387643 165.667869,10.9519409 C166.239942,9.16511738 167.098038,7.61060427 168.242184,6.2883549 C169.386329,4.96610553 170.81649,3.92082947 172.532708,3.15249538 C174.248926,2.38416128 176.251151,2 178.539442,2 C180.434433,2 182.12381,2.3216234 183.607624,2.96487985 C185.091438,3.6081363 186.351767,4.49260066 187.388648,5.61829945 C188.42553,6.74399823 189.221057,8.10196371 189.775253,9.6922366 C190.329448,11.2825095 190.606542,13.0067683 190.606542,14.8650647 C190.606542,15.8299494 190.561849,16.6965458 190.472463,17.4648799 C190.383076,18.2332139 190.30263,18.8675268 190.231121,19.3678373 L173.927128,19.3678373 Z M178.217653,8.8077634 C177.073507,8.8077634 176.090272,9.16512274 175.267917,9.87985213 C174.445563,10.5945815 173.962884,11.7023955 173.819865,13.2033272 L182.400914,13.2033272 C182.329405,11.9525507 181.945049,10.9072747 181.247835,10.0674677 C180.550622,9.22766062 179.540571,8.8077634 178.217653,8.8077634 Z M196.07696,2.64325323 C196.86356,2.46457089 197.64121,2.33949512 198.409933,2.26802218 C199.178655,2.19654924 199.920551,2.16081331 200.635642,2.16081331 C201.314979,2.16081331 202.047936,2.19654924 202.834536,2.26802218 C203.621136,2.33949512 204.389847,2.46457089 205.140693,2.64325323 L205.140693,30.2495379 C204.211074,30.4282202 203.370855,30.544362 202.62001,30.5979667 C201.869164,30.6515714 201.207715,30.6783734 200.635642,30.6783734 C200.027815,30.6783734 199.348489,30.6515714 198.597643,30.5979667 C197.846798,30.544362 197.006578,30.4282202 196.07696,30.2495379 L196.07696,2.64325323 Z M212.327321,2.64325323 C212.970903,2.50030736 213.757491,2.39309956 214.687109,2.32162662 C215.616727,2.25015368 216.43907,2.21441774 217.154161,2.21441774 C218.083779,2.21441774 219.022322,2.25015368 219.969817,2.32162662 C220.917313,2.39309956 221.677085,2.50030736 222.249158,2.64325323 L215.598846,15.5083179 L223,30.2495379 C222.356418,30.3924838 221.551953,30.4996916 220.58658,30.5711645 C219.621207,30.6426374 218.780988,30.6783734 218.065897,30.6783734 C217.136279,30.6783734 216.215613,30.6426374 215.303872,30.5711645 C214.392131,30.4996916 213.668112,30.3924838 213.131794,30.2495379 L205.998797,15.883549 L212.327321,2.64325323 Z" id="path-1"></path>
    </defs>
    <g id="Logo-/-Coingeek" stroke="none" stroke-width="1" fill="none" fill-rule="evenodd">
        <mask id="mask-2" fill="white">
            <use xlink:href="#path-1"></use>
        </mask>
        <use id="coingeek" fill="#ffffff" xlink:href="#path-1"></use>
        <g id="Color-/-Dark" mask="url(#mask-2)" fill="#ffffff" fill-rule="nonzero">
            <rect id="Rectangle" x="0" y="0" width="223" height="32"></rect>
        </g>
    </g>
</svg>