<svg xmlns="http://www.w3.org/2000/svg" viewBox="0 0 960 560" enable-background="new 0 0 960 560"><g fill="#fff"><path d="m557.25 309.71c-4.622-9.903-8.583-20.467-13.205-30.371-3.961-9.904-8.583-19.808-12.545-29.711-4.621-10.564-9.243-21.788-13.865-32.35-1.32-2.641-2.641-5.282-3.301-7.923 0-.66-.66-.66-1.32-.66-4.622 0-9.244 0-14.525 0-.66 0-1.321 0-1.321.66-1.32 3.301-2.641 6.603-3.961 9.904-1.98 4.622-3.962 9.904-6.603 14.525-1.98 4.622-3.962 8.583-5.282 13.205-1.98 4.622-3.961 8.583-5.942 13.205-1.32 3.301-3.301 7.263-4.621 10.564-2.642 5.942-4.622 11.224-7.263 17.17-1.98 5.282-4.622 9.903-6.603 15.187-1.981 4.621-3.962 8.582-5.282 13.204-1.32 2.642-1.98 4.622-3.301 7.263 0 1.32.66.66 1.32.66 4.621 0 8.583 0 13.205 0 .66 0 1.32 0 1.32 0 1.32-3.301 2.641-6.603 3.961-10.563 7.263-17.17 14.525-34.33 21.13-52.16 5.282-11.885 9.904-24.429 14.525-36.31 0-.66 0-1.32.66-1.98 7.263 17.17 13.865 34.33 21.13 51.5-9.243 0-17.826 0-27.07 0-.661 0-1.321 0-1.981.66-1.32 3.301-2.641 7.262-3.961 10.564-.66 1.98-.66 1.98 1.32 1.98 11.885 0 23.11 0 34.993 0 .66 0 1.32 0 1.98 1.321 1.32 3.301 2.642 5.941 3.962 8.582 1.98 4.622 3.301 8.584 5.281 13.205 1.981 4.622 3.962 8.584 5.282 13.205 0 .66.66.66 1.32.66 4.622 0 9.244 0 14.526 0 .66 0 .66 0 1.32 0-1.318-5.283-3.3-10.565-5.28-15.187"/><path d="m92.44 225.86c.66 0 .66-.661 0 0 .66-4.622.66-8.583.66-11.885 0-.66 0-.66-.66-1.32-5.942-1.32-11.224-2.641-17.17-3.961-.66-.66-1.32 0-1.32 0-.66 0-.66 0-1.32 0-.661-.66-1.321 0-1.321 0-.66 0-1.32 0-1.98 0-.661-.66-1.981 0-2.641 0-3.961-.66-7.923-.66-12.545-.66-.66 0-1.32 0-2.641 0-.661 0-1.321 0-1.981 0s-1.32 0-1.32 0c-3.961 1.32-7.923 1.98-11.885 2.641-9.243 2.641-17.827 7.263-24.429 15.186-3.301 3.961-5.942 8.583-7.923 13.205-1.98 4.622-2.641 9.904-3.301 15.186-.66 0 0 .66 0 1.32 0 .66 0 1.321 0 1.321-.661.659-.661 1.319-.661 2.639 0 3.961 0 7.923 0 11.885 0 0 0 0 0 .66 0 0 0 0 0-.66 0 .66 0 1.98 0 2.641s0 1.321 0 1.321c0 .66 0 1.32 0 1.32 0 1.32 0 2.641.66 4.622 1.321 3.962 1.981 8.584 3.301 12.545 1.981 5.942 5.282 11.225 9.904 15.846 5.282 5.942 11.884 9.244 19.15 11.885 5.282 1.98 10.564 2.641 16.506 3.301.66.66 1.32 0 1.981 0 .66 0 1.32 0 1.98 0 1.321.66 1.981 0 3.301 0h-.66.66c2.641 0 5.282 0 7.923 0h.661-.661c1.321 0 1.981 0 3.301 0 .66 0 1.321 0 1.981 0 .66 0 1.32 0 1.98 0 1.981 0 3.962-.66 5.942-.66 5.282-.66 10.564-1.98 15.186-3.301v-.66c0-3.962 0-7.263 0-11.225 0-.66 0-.66-.66-.66-1.32.66-2.641.66-3.961 1.32-5.942 1.98-11.884 3.302-17.827 3.962-.66 0-1.32 0-1.32 0-.661 0-1.321 0-2.641 0-3.301 0-5.942 0-9.244 0-.66 0-1.32 0-1.98 0-.66-.66-1.321 0-1.321 0-2.641 0-4.622-.66-6.602-.66-8.583-1.981-16.506-5.282-21.789-12.545-5.942-7.263-8.583-15.847-9.243-25.75 0-.66 0-1.32 0-1.32 0-.66 0-1.32 0-2.641 0-2.641 0-5.942 0-8.583 0-.66 0-1.32 0-1.981.66-.66 0-1.32 0-1.32.66-23.769 14.525-36.31 36.31-38.29.66 0 1.32 0 1.32 0 .661 0 1.321 0 1.981 0 1.32 0 1.98 0 3.301 0 1.98 0 3.961 0 6.603 0 .66.66 1.98 0 2.641 0 0 0 0 0-.66 0 0 0 0 0 .66 0 .661 0 1.321 0 1.981 0 .66.66 1.32 0 1.32 0 1.981 0 4.622.66 6.603.66 4.623 1.319 9.245 3.299 13.867 4.62m-40.935 99.04"/><path d="m645.72 239.72c-4.622 0-9.244 0-13.865 0-.66 0-.66 0-1.321.66-1.32 3.301-2.641 7.263-3.961 10.564s-2.642 6.603-3.962 9.904c-1.32 3.961-2.641 7.263-3.961 11.224-1.32 3.301-2.642 7.263-3.962 10.563-1.32 3.962-2.641 7.924-4.621 11.885-1.321 3.301-2.642 7.263-3.962 10.564 0-.66-.66-.66-.66-1.32-5.942-15.847-11.225-31.03-17.17-46.878-1.981-5.942-3.962-11.225-5.942-17.17 0-.661 0-.661-.66-.661-5.282 0-10.564 0-15.847 0 1.32 3.301 2.642 5.942 3.302 9.244 2.641 6.603 5.282 13.865 7.923 20.468 2.641 7.263 5.282 13.865 7.923 21.13 1.98 5.281 3.962 10.563 5.942 15.846 1.98 5.281 3.961 9.903 5.942 15.186.66 1.32 1.32 1.98.66 3.301-2.642 5.942-6.603 10.564-11.225 14.525-2.641 1.981-5.282 3.962-8.583 5.282-.66 0-.66 0-.66.66 1.98 3.302 3.301 6.603 5.282 9.243 0 .661.66.661 1.32.661 1.98-.661 4.621-1.981 6.603-2.642 8.583-5.282 15.186-12.545 19.15-21.788 3.962-9.243 7.924-19.15 11.885-29.05 5.942-14.525 11.885-29.05 17.17-43.576 2.641-5.941 4.621-11.883 7.263-17.825"/><path d="m310.98 239.72c-3.961 0-8.583 0-12.544 0-2.641 0-2.641 0-3.301 2.641-2.641 5.942-4.622 11.885-7.263 18.487-2.641 7.263-5.282 14.525-7.923 21.788-1.98 5.942-3.961 11.225-5.942 17.17-.661 1.98-1.321 3.962-2.641 5.942 0 0 0-.66-.66-.66-5.942-15.846-11.224-31.03-17.17-46.878-1.981-5.942-3.961-11.224-5.942-17.17 0-.66-.66-1.32-1.98-1.32-4.622 0-9.244 0-13.865 0-.66 0-.66 0-.66.66 1.32 3.961 3.301 7.923 4.622 11.884 1.98 3.961 3.301 8.583 4.622 13.205 1.32 3.961 2.641 7.923 4.622 11.224 1.321 3.961 3.301 7.922 4.622 11.884 1.32 3.962 2.641 7.263 3.961 11.225s2.641 7.263 4.622 11.224c1.981 4.622 3.301 9.244 5.282 13.205h.66c3.961 0 7.923 0 11.884 0 .66 0 .66 0 .66 0 1.321-3.301 2.641-6.603 3.962-9.243 4.622-11.224 9.243-23.11 13.865-34.33 5.282-13.205 10.564-26.41 16.506-39.615 1.318-1.32.658-1.32-.002-1.32"/><path d="m960 254.25c0-1.321 0-3.301 0-4.622-.66-5.942-4.622-9.903-10.564-11.224-5.941-.66-10.563.66-15.186 3.961-.66.661-1.32 1.321-1.98 1.321s-1.32-1.321-1.98-1.981l-.66-.66c-3.962-2.641-7.924-3.301-12.545-2.641-3.962.66-7.263 2.641-10.564 4.622-.66-.661-.66-.661-.66-1.321-.66-3.961-.66-3.961-5.282-3.961-.66 0-.66 0-.66.66 0 13.205 0 27.07 0 40.27 0 .66 0 1.32 1.32 1.32 1.981 0 3.302 0 5.282 0 1.32 0 1.32 0 1.32-1.32 0-9.244 0-18.487 0-27.73 0-.66 0-1.321 0-1.981 3.302-3.301 7.263-5.282 11.885-5.282 2.641 0 4.622 1.98 5.942 4.622.66 1.32.66 3.301.66 4.622 0 8.583 0 17.17 0 25.09 0 1.321 0 1.321 1.32 1.321s3.302 0 4.622 0 1.32 0 1.32-1.321c0-9.243 0-18.487 0-27.73 0-.661 0-1.321 0-1.321 3.301-3.301 7.263-5.282 11.885-5.282 3.961 0 5.281 1.98 6.602 5.942 0 1.321.661 2.641.661 3.961 0 8.583 0 16.506 0 25.09 0 1.32 0 1.32 1.32 1.32s3.301 0 4.622 0c1.32 0 1.32 0 1.32-1.32 0-7.923 0-15.846 0-24.429"/><path d="m842.48 239.06c-3.301-.66-6.603-.66-9.903-.66-2.641 0-4.622 0-7.263.66-7.263 1.321-12.545 5.282-14.525 12.545-1.32 5.942-1.32 11.224.66 17.17 1.98 4.622 4.622 7.923 9.243 9.904 7.263 2.641 14.525 1.98 21.788.66.661 0 .661-.66.661-1.32 0-1.321 0-2.641 0-3.962 0-.66 0-1.32-1.321-.66-4.621.66-9.243 1.32-13.865.66-4.621-.66-8.583-3.301-10.563-7.923-1.32-3.301-1.32-7.263-1.32-11.224.66-5.282 3.301-8.583 8.583-10.564 1.98-.66 3.301-.66 5.282-.66 3.961 0 7.923 0 11.224.66 1.32 0 1.32 0 1.32-.66 0-1.321 0-2.641 0-3.961 1.32-.001.659-.662-.001-.662"/><path d="m802.2 273.4c-.66-.66-1.981 0-3.302 0s-2.641-.66-3.301 0 0 2.641 0 3.301c0 3.301 0 3.301 3.961 3.301 1.32 0 2.642.66 3.302 0s0-2.641 0-3.301c0-1.32.66-2.64-.66-3.301"/><path d="m338.71 239.72c-4.622 0-9.904 0-14.525 0-.66 0 0 .66 0 1.32 0 1.981 0 3.301 0 5.282 0 25.75 0 50.839 0 76.59 0 1.32.66 1.98 1.98 1.98 3.962 0 7.923 0 11.885 0 1.32 0 1.32 0 1.32-1.32 0-27.73 0-54.8 0-82.53 0-.66 0-1.32-.66-1.32"/><path d="m217.3 208.69c-3.606 0-7.212 0-10.818 0-1.202 0-1.803.66-1.803 1.98 0 13.205 0 26.41 0 39.615 0 24.429 0 48.857 0 72.63 0 1.32 0 1.98 1.803 1.98 3.606 0 7.212 0 10.818 0 .601 0 1.202 0 1.202 0 0-38.29 0-76.59 0-115.54 0-.659-.601-.659-1.202-.659"/><path d="m325.5 223.22c1.981 0 3.961 0 6.603 0 1.981 0 4.622 0 6.603 0 1.32 0 1.32 0 1.32-1.32 0-3.962 0-7.923 0-11.885 0-.66 0-1.32-1.32-1.32-4.622 0-8.583 0-13.205 0-.66 0-1.32 0-1.32 1.32 0 3.961 0 7.923 0 11.885-.662 1.32-.001 1.32 1.319 1.32"/><path d="m698.54 239.72h-1.32 1.32c-1.98 0-2.641 0-3.962 0-8.583.66-16.506 3.961-22.448 10.564 0-.661 0-.661-.66-1.321-.66-2.641-1.32-5.282-1.98-8.583 0-1.321-.66-1.321-1.32-1.321-2.642 0-5.282 0-7.263 0-1.32 0-1.32.661-1.32 1.321 0 27.73 0 55.46 0 83.19 0 .66.66 0 .66 0 4.621 0 8.583 0 13.205 0 1.32 0 1.32-.66 1.32-1.32 0-19.808 0-40.27 0-60.08.66-1.32 1.98-2.641 3.301-3.301 5.282-4.622 11.885-7.263 19.15-7.263.66 0 1.32 0 1.32 0s-.66 0-1.32 0c1.98 0 1.98 0 1.98-1.981 0-3.301 0-5.942 0-9.243 0 0 0-.66-.66-.66"/><path d="m436.42 266.13c0-1.98-.66-3.961-1.32-5.942-1.32-6.602-4.622-11.884-10.564-15.846-4.621-3.301-10.563-4.622-15.846-4.622-1.32-.661-1.98 0-3.302 0h.661-.661c-.66 0-1.32 0-1.98 0h-.66.66c-.66 0-1.98 0-2.641 0-1.981 0-3.962 0-5.942.66-6.603 1.98-12.545 4.622-17.827 8.583-.66.66-1.321.66-1.321-.66-.66-2.641-1.32-5.282-1.98-7.923 0-.66-.66-1.321-1.321-1.321-2.641 0-5.942 0-8.583 0-.66.661-.66 1.321-.66 1.321 0 27.73 0 54.8 0 82.53 0 1.32 0 1.32 1.32 1.32 3.961 0 8.583 0 12.545 0 .66 0 .66 0 1.32-.66 0-19.807 0-40.27 0-60.08 0-1.32.66-1.98 1.321-2.641 1.98-1.981 4.622-3.301 7.263-5.282 4.622-2.641 9.243-3.961 13.865-3.961 1.32 0 1.98 0 3.301 0 1.32 0 3.302 0 4.622.66 3.301.66 5.942 1.981 7.923 4.622 3.302 3.301 3.962 7.923 3.962 12.544 0 17.827 0 35.654 0 53.48 0 1.32.66 1.32 1.32 1.32 3.961 0 8.583 0 12.545 0 .66 0 .66 0 1.32-.66 0-18.486 0-36.974 0-55.46v-.661.661c.66.001.66-1.32.66-1.98m-73.29 57.44c0 .66 0 .66.66.66-.66 0-.66 0-.66-.66m58.1-.66v-.66c0 0 0 0 0 .66"/><path d="m181.57 268.12c0-1.981 0-3.961 0-6.603-.661-7.923-4.622-13.865-11.885-17.17-5.282-2.641-10.564-3.961-16.506-4.622-.66 0-1.32 0-1.32 0-.66 0-1.32 0-1.981 0-1.32 0-2.641 0-3.301 0-.661 0-.661 0-1.321 0s-1.32 0-2.641 0h-.66c-1.32 0-1.98 0-3.301 0-.66 0-1.32 0-1.98 0s-1.321 0-1.321 0c-5.942.66-11.884 1.98-17.827 3.301 0 3.961 0 7.923 0 11.224 0 .66 0 .66.661.66 2.641-.66 5.942-1.32 8.583-1.981 3.301-.66 5.942-1.32 9.244-1.32.66 0 1.32 0 1.98 0s1.981 0 2.641 0c1.98 0 3.961 0 5.942 0 3.961 0 7.263.66 10.563 1.981 4.622 1.98 7.923 5.282 8.583 10.564 0 3.301 0 6.602 0 9.903-1.981 0-3.961-.66-5.942-.66-.66 0-1.32 0-1.32 0-.66 0-1.32 0-1.981 0-.66 0-1.32 0-1.98 0-.66 0-1.321 0-2.641 0-.66 0-1.981 0-2.641 0h-.66c-2.641 0-5.942 0-8.583 0 0 0 0 0-.66 0-.661 0-1.321 0-1.981 0-2.641.66-4.622.66-7.263 1.32-6.603 1.321-12.545 3.962-17.17 9.903-2.641 3.302-3.301 7.264-3.961 11.225 0 1.98 0 4.622 0 7.264 0 .66 0 1.32 0 1.32 0 1.32.66 3.301.66 4.621 1.32 4.622 3.961 8.583 7.923 11.225 4.622 3.301 9.244 4.621 14.525 4.621.661.66 1.321 0 1.321 0 1.32 0 1.98 0 3.301 0 1.32.66 1.98.66 3.301 0 .66 0 1.98 0 2.641 0 .661 0 1.321 0 1.321 0 2.641-.66 5.942-.66 8.583-1.98 3.961-1.32 7.923-2.641 11.224-5.282 1.981-1.32 1.981-1.32 2.641.66 1.321 1.981 2.641 4.622 3.961 6.603 1.981.66 4.622 0 6.603 0 .66 0 1.321 0 1.981 0 2.641-19.15 2.641-37.633 2.641-56.78m-64.7-22.449c0 .66 0 .66 0 1.321 0 0 0-.661 0-1.321m27.73 78.57c0 0 .66 0 0 0m22.448-29.05c0 2.641 0 5.282 0 7.263 0 .661 0 1.321-.66 1.981-5.942 3.961-12.544 6.602-19.15 7.262-3.301.661-6.603.661-10.564 0-8.583-1.32-11.885-6.602-11.224-13.865.66-7.262 4.622-11.224 12.544-12.544 5.942-.661 12.545-.661 18.487 0 3.301 0 6.603.66 9.904 1.32.66 0 1.321.66 1.321 1.32-.661 1.981-.661 4.622-.661 7.263"/><path d="m766.55 243.03c-4.622-1.981-9.244-3.301-14.525-3.301-1.321 0-1.981 0-2.642 0h-.66c-.66 0-1.32 0-2.641 0h-.66c-1.321 0-1.981 0-3.302 0-1.98 0-3.961.66-5.282.66-3.961.66-7.923 1.98-11.884 3.961-2.642 1.32-5.282 3.301-7.263 5.942-1.981 1.98-3.302 3.961-4.622 5.942-2.641 5.282-4.622 10.564-4.622 16.506-.66.66 0 1.32 0 1.32 0 .66 0 1.321 0 1.981-.66.66 0 1.32 0 1.981 0 2.641 0 4.621 0 7.263 0 .66 0 1.32 0 1.98s0 1.32 0 1.32c0 .661 0 1.981.66 2.642.661 5.281 2.642 10.563 5.282 15.186 4.622 7.263 10.564 11.884 19.15 14.525 3.962 1.32 7.923 1.98 11.885 1.98.66 0 1.32 0 1.98 0 1.32 0 2.641 0 3.301 0 1.321 0 3.302 0 4.622 0 2.642 0 5.282 0 7.263-.66 5.282-.66 10.564-1.32 15.846-2.641.66 0 1.32-.66 1.32-1.321 0-3.301 0-6.603 0-9.903 0-.66 0-1.32-1.32-.66-3.301 1.32-7.263 1.98-11.224 1.98-7.923.66-15.846 1.32-24.43 0-11.884-1.98-19.15-10.564-19.807-23.11 0-1.981 0-1.981 1.98-1.981 18.487 0 37.634 0 56.12 0 .66 0 1.32 0 1.98-1.32.66-7.262.66-14.525-.66-21.788-1.978-7.262-7.26-14.524-15.843-18.486m.66 31.03c-7.263 0-14.525 0-21.13 0-7.263 0-14.525 0-21.788 0-.661 0-1.321 0-1.321-.66.66-5.942 1.981-11.224 5.942-15.186 1.981-2.641 5.282-3.961 7.923-4.622 5.282-1.32 10.564-1.98 15.847-.66 7.923 1.321 13.204 6.603 15.186 14.525.66 1.981.66 3.301.66 5.282.659.66-.001 1.321-1.321 1.321"/><path d="m877.47 239.06c-4.621-1.32-9.903-1.32-14.525 0-5.942 1.321-9.903 5.282-11.224 10.564-.66 3.301-1.321 5.942-1.321 9.244 0 1.981 0 3.961.661 5.282 1.32 7.263 5.281 13.205 13.204 14.525 3.302.66 7.264.66 10.564.66 7.263-.66 13.205-5.282 15.186-12.545 1.32-5.942 1.32-11.224 0-17.17-1.981-5.28-5.943-9.242-12.545-10.563m4.622 26.411c-1.98 7.263-6.603 9.243-13.205 9.243-7.923-.66-10.563-5.942-11.224-11.884 0-3.301 0-6.603.66-9.244 1.32-5.282 4.621-7.923 9.903-8.583 1.98 0 4.622 0 6.603.66 4.622 1.321 6.603 5.282 7.263 9.244 0 1.981.66 3.301 0 5.282.66 1.32.66 3.301 0 5.282"/></g></svg>