<?xml version="1.0" encoding="utf-8"?>
<!-- Generator: Adobe Illustrator 22.0.1, SVG Export Plug-In . SVG Version: 6.00 Build 0)  -->
<svg version="1.1" id="Layer_1" xmlns="http://www.w3.org/2000/svg" xmlns:xlink="http://www.w3.org/1999/xlink" x="0px" y="0px"
	 viewBox="0 0 78.1 34.5" style="enable-background:new 0 0 78.1 34.5;" xml:space="preserve">
<style type="text/css">
	.st0{fill:#FFFFFF;}
</style>
<g>
	<g>
		<polygon class="st0" points="13,0 0,22.2 4.1,22.2 12.9,7.1 13,7.1 21.9,22.2 25.9,22.2 		"/>
		<g>
			<path class="st0" d="M55,14.8v-0.2c2.7-1.1,4.5-3.3,4.5-6.7c0-3.7-2.1-6.1-5.5-6.9l-2.2,2.9c2.5,0.3,4.1,1.7,4.1,4.2
				c0,2.9-2,4.2-5,4.2h-5.6l-3.9,5v4.9h3.6v-6.9h6.2l5.3,6.9h4v-0.5L55,14.8z"/>
		</g>
		<g>
			<polygon class="st0" points="34.2,13.9 42.5,0.5 38.3,0.5 32.3,10.4 26.5,0.5 22.4,0.5 34.2,19.6 			"/>
		</g>
		<g>
			<polygon class="st0" points="66.5,18.3 69.5,22.2 78.1,22.2 78.1,18.3 			"/>
			<path class="st0" d="M78,0.5H65.6c1.2,1,2,2.3,2.4,3.8H78V0.5z"/>
			<path class="st0" d="M65.5,13.3h9.2V9.4h-6.8C67.5,11,66.6,12.3,65.5,13.3z"/>
		</g>
	</g>
</g>
<g>
	<polygon class="st0" points="25.2,33.7 24,30.9 23.4,30.9 23.4,34.5 24,34.5 24,32.3 25,34.5 25.4,34.5 26.4,32.3 26.4,34.5 
		27,34.5 27,30.9 26.4,30.9 	"/>
	<polygon class="st0" points="31.8,34.5 34.1,34.5 34.1,34 32.4,34 32.4,32.9 34,32.9 34,32.4 32.4,32.4 32.4,31.5 34.1,31.5 
		34.1,30.9 31.8,30.9 	"/>
	<path class="st0" d="M39.9,30.9h-1.2v3.6h1.2c1.1,0,1.8-0.7,1.8-1.8C41.7,31.6,41,30.9,39.9,30.9z M39.9,34h-0.6v-2.5h0.6
		c0.8,0,1.2,0.5,1.2,1.2C41.2,33.5,40.7,34,39.9,34z"/>
	<rect x="46.4" y="30.9" class="st0" width="0.6" height="3.6"/>
	<path class="st0" d="M53.5,30.9H53l-1.5,3.6h0.6l0.4-0.9H54l0.4,0.9h0.6L53.5,30.9z M53.7,33.1h-1.1l0.5-1.3L53.7,33.1z"/>
</g>
</svg>
