<?xml version="1.0" encoding="utf-8"?>
<!-- Generator: Adobe Illustrator 22.0.0, SVG Export Plug-In . SVG Version: 6.00 Build 0)  -->
<svg version="1.1" id="Layer_1" xmlns="http://www.w3.org/2000/svg" xmlns:xlink="http://www.w3.org/1999/xlink" x="0px" y="0px"
	 viewBox="0 0 100 41.6" style="enable-background:new 0 0 100 41.6;" xml:space="preserve">
<style type="text/css">
	.st0{fill:#FFFFFF;}
</style>
<g>
	<polygon class="st0" points="31.6,32.3 29.6,32.3 29.6,34.2 31.5,34.2 31.5,34.5 29.6,34.5 29.6,36.7 29.2,36.7 29.2,32 31.6,32 
		31.6,32.3 	"/>
	<path class="st0" d="M37.9,36.8c-1.3,0-2.4-0.9-2.4-2.4c0-1.5,1.1-2.4,2.4-2.4c1.3,0,2.4,0.9,2.4,2.4
		C40.2,35.9,39.1,36.8,37.9,36.8L37.9,36.8z M37.9,32.2c-1.1,0-2,0.8-2,2.1c0,1.3,0.9,2.1,2,2.1c1.1,0,2-0.8,2-2.1
		C39.9,33,38.9,32.2,37.9,32.2L37.9,32.2z"/>
	<path class="st0" d="M47.8,34.8c0,0.5,0,1-0.3,1.4c-0.3,0.4-0.8,0.6-1.3,0.6c-0.6,0-1-0.2-1.3-0.6c-0.3-0.4-0.3-0.9-0.3-1.4V32h0.4
		v2.8c0,0.4,0,0.8,0.2,1.1c0.2,0.3,0.6,0.5,1.1,0.5c0.5,0,0.8-0.2,1.1-0.5c0.2-0.3,0.2-0.8,0.2-1.1V32h0.4V34.8L47.8,34.8z"/>
	<polygon class="st0" points="56.2,36.7 55.9,36.7 52.7,32.6 52.7,36.7 52.4,36.7 52.4,32 52.7,32 55.8,36 55.8,32 56.2,32 
		56.2,36.7 	"/>
	<path class="st0" d="M63.8,36c-0.3,0.3-0.9,0.6-1.7,0.6h-1.3V32h1.3c0.8,0,1.4,0.3,1.7,0.6c0.3,0.3,0.7,0.9,0.7,1.7
		C64.5,35.2,64.1,35.7,63.8,36L63.8,36z M63.5,32.8c-0.3-0.3-0.8-0.5-1.4-0.5h-0.9v4H62c0.6,0,1.1-0.2,1.4-0.5
		c0.3-0.3,0.7-0.8,0.7-1.5C64.1,33.6,63.8,33.1,63.5,32.8L63.5,32.8z"/>
	<path class="st0" d="M72.3,36.7h-0.4l-0.6-1.4h-2.2l-0.6,1.4h-0.4l2-4.7h0.2L72.3,36.7L72.3,36.7z M71.2,34.9l-1-2.4l-1,2.4H71.2
		L71.2,34.9z"/>
	<polygon class="st0" points="78.4,32.3 77,32.3 77,36.7 76.6,36.7 76.6,32.3 75.2,32.3 75.2,32 78.4,32 78.4,32.3 	"/>
	<polygon class="st0" points="82.8,36.7 82.5,36.7 82.5,32 82.8,32 82.8,36.7 	"/>
	<path class="st0" d="M89.5,36.8c-1.3,0-2.4-0.9-2.4-2.4c0-1.5,1.1-2.4,2.4-2.4c1.3,0,2.4,0.9,2.4,2.4
		C91.9,35.9,90.8,36.8,89.5,36.8L89.5,36.8z M89.5,32.2c-1.1,0-2,0.8-2,2.1c0,1.3,0.9,2.1,2,2.1c1.1,0,2-0.8,2-2.1
		C91.5,33,90.6,32.2,89.5,32.2L89.5,32.2z"/>
	<polygon class="st0" points="100,36.7 99.7,36.7 96.5,32.6 96.5,36.7 96.2,36.7 96.2,32 96.5,32 99.6,36 99.6,32 100,32 100,36.7 	
		"/>
	<path class="st0" d="M41.2,12.1c-0.5,0.5-1.8,1.7-4.8,1.7c-4,0-7.2-2.4-7.2-6.9c0-4.5,3.2-6.9,7.2-6.9c3,0,4.5,1.3,4.5,1.3L39.7,5
		c0,0-1.4-1.2-3-1.2c-1.7,0-3.1,1-3.1,3.1c0,2.1,1.5,3,3.1,3c1.6,0,2.6-0.6,3.2-1.2L41.2,12.1L41.2,12.1z"/>
	<path class="st0" d="M55.2,13.6h-4.8l-0.5-1.9H46l-0.5,1.9H41l4.7-13.4h4.9L55.2,13.6L55.2,13.6z M49,8.4l-1-3.6l-1,3.6H49L49,8.4z
		"/>
	<polygon class="st0" points="64.9,13.6 55.9,13.6 55.9,0.2 60.3,0.2 60.3,10 64.9,10 64.9,13.6 	"/>
	<polygon class="st0" points="77.3,0.2 72.3,13.6 68,13.6 62.9,0.2 67.6,0.2 70.1,8 72.6,0.2 77.3,0.2 	"/>
	<polygon class="st0" points="82.5,13.6 78.1,13.6 78.1,0.2 82.5,0.2 82.5,13.6 	"/>
	<path class="st0" d="M97.2,13.6h-4.6l-4.1-7.5c0,0,0.1,1.5,0.1,2.4v5.1h-4.3V0.2h4.8l3.9,7.5c0,0-0.1-1.5-0.1-2.4V0.2h4.3V13.6
		L97.2,13.6z"/>
	<path class="st0" d="M43.4,29h-4.8l-0.5-1.9h-3.8L33.8,29h-4.6l4.7-13.4h4.9L43.4,29L43.4,29z M37.2,23.8l-1-3.6l-1,3.6H37.2
		L37.2,23.8z"/>
	<polygon class="st0" points="54.8,15.6 50.1,23.8 50.1,29 45.7,29 45.7,23.8 41.1,15.6 45.9,15.6 47.9,20.2 49.9,15.6 54.8,15.6 	
		"/>
	<path class="st0" d="M67.5,29h-5.1l-2.1-4.5h-0.6V29h-4.4V15.6h5.8c1.7,0,2.9,0.3,3.9,1c1,0.7,1.7,1.8,1.7,3.3c0,2.7-1.7,3.7-2.2,4
		L67.5,29L67.5,29z M61.8,19.2c-0.2-0.2-0.5-0.3-1-0.3h-1.1v2.3h1.1c0.5,0,0.8-0.1,1-0.2c0.2-0.2,0.5-0.3,0.5-0.9
		C62.3,19.5,62,19.3,61.8,19.2L61.8,19.2z"/>
	<polygon class="st0" points="77.9,29 68.2,29 68.2,15.6 77.7,15.6 77.7,19.1 72.5,19.1 72.5,20.6 77.4,20.6 77.4,24 72.5,24 
		72.5,25.5 77.9,25.5 77.9,29 	"/>
	<path class="st0" d="M27.7,19.7c1.4,0,3,1-0.6,2.9c1.3,1.4,0.7,3-2,3.2c-0.3,2-1.6,2.6-2.8,2.1c-2.1-3.5-3.1-4.3-7.4-3.7
		c-1.4,0.2-1.8-0.4-2.4-0.7c1.8,0.4,3.3-0.2,4.9-0.5c3-0.4,3.6,2.5,5,4.3c1.3,0.4,2.1-0.8,2.5-1.8c2.3-0.4,2.5-1.8,1.9-3.1
		c2.5-1.4,2-2.1,0.9-2.5c-0.5-0.2-0.9,0.1-1.4,0.2c-4.2,1.4-6.8-0.2-9.7-3.8c2.1,2.2,4.7,3.9,9.8,3.5C26.8,19.8,27.2,19.7,27.7,19.7
		L27.7,19.7L27.7,19.7z"/>
	<path class="st0" d="M15.7,13.5c2.2,1.4,4.1,1.4,5.9-0.6c-0.8-0.1-1.4-0.3-1.7-0.5c0.2,0.3,0.4,0.6,0.9,0.6
		C19.2,14.1,17.5,13.9,15.7,13.5L15.7,13.5L15.7,13.5z"/>
	<path class="st0" d="M16.3,10.4c3.4,1.2,6.5,1.4,9.1-1.4c-0.8-0.1-1.7-0.2-2.5-0.6c0.3,0.4,0.8,0.7,1.4,0.8
		C22.3,10.5,19.5,10.7,16.3,10.4L16.3,10.4L16.3,10.4z"/>
	<path class="st0" d="M15.9,7.8c3.9,1,6.9,0.1,9.8-2.7c-0.9,0.1-1.8,0.1-2.6-0.2c0.4,0.2,0.8,0.6,1.5,0.6C22,7.1,19.1,7.7,15.9,7.8
		L15.9,7.8L15.9,7.8z"/>
	<path class="st0" d="M4.2,27.7c1.1,1.5,2.5,2.6,3.9,3.9c1.6,1.5,1.7,3.1,1.5,4.5c-0.5-0.5-1.3-0.9-2.4-1.1c0.6,0,1.3,0,2,0.2
		c-0.2-1.2-1.2-2.8-2.7-4.2C5.3,30.1,4.5,29,4.2,27.7L4.2,27.7L4.2,27.7z"/>
	<path class="st0" d="M6,27.1c0.6,0.7,1.2,1.4,2.5,2c1.3,0.6,2.5,1.3,2.9,2.2c-0.4,0-1.1,0.2-1.9,0.4c1-0.1,1.8,0,2.5,0.2
		c0.1-0.9-0.2-2-1.9-2.9C8.5,28.1,7.2,27.7,6,27.1L6,27.1L6,27.1z"/>
	<path class="st0" d="M8.2,25.7c1.8,0.3,3.5,0.5,4.7,2c-0.5,0-0.9,0.1-1.4,0.4c0.6-0.1,1.4-0.1,2.2-0.1
		C12.6,25.5,10.4,25.6,8.2,25.7L8.2,25.7L8.2,25.7z"/>
	<path class="st0" d="M8.2,21.7c-1-0.6-1.8-1.5-2.7-2.9c-0.6-1-1.9-1.6-3.2-1.9c-0.7-0.2-1.5-0.1-2.3-0.1c1-0.3,1.9-0.6,2.3-1.7
		c0.5-1.2,1.3-1.5,2.2-1.6c1.5-0.2,2.1,0.3,2.8,0.6c6,3.2,4-2.3,2.6-4.6C8.3,6.9,13,5.5,14.8,5.4C19.1,5,22.7,4,25.7,1.7
		c-3.2,3.5-6.6,3.7-11,4.4c-1.7,0.3-4.6,1.9-3.4,4c2.5,4.6-0.1,6.8-4.7,4.6c-0.8-0.4-1.8-0.6-2.7-0.2c-0.8,0.3-1.3,1.1-1.9,1.8
		c2.3,0.5,3.6,0.4,4.4,2.9C6.8,20.2,7.6,20.9,8.2,21.7L8.2,21.7L8.2,21.7z"/>
	<path class="st0" d="M9.5,19.7c-0.3,1.2-0.6,2.4-2.3,3c-1.7,0.6-3.6,1.1-4.6,1.7c-1.8,1.1,0,4.8,0.9,6c2.8,3.8,3.3,6.6,2.8,11.2
		c-0.1-4.6-1.5-7.3-4.1-11c-1.3-1.9-2.7-5.4-0.3-7c0.5-0.4,1.7-0.6,2.9-0.8C7.2,22.3,8.7,21.1,9.5,19.7L9.5,19.7L9.5,19.7z"/>
	<path class="st0" d="M3.5,15.4c0.2,0,0.4,0.1,0.4,0.4c0,0.2-0.1,0.4-0.4,0.4c-0.2,0-0.4-0.1-0.4-0.4C3.1,15.6,3.3,15.4,3.5,15.4
		L3.5,15.4z"/>
</g>
</svg>
